%TF.GenerationSoftware,KiCad,Pcbnew,10.0.1-10.0.1~ubuntu24.04.1*%
%TF.CreationDate,2026-05-07T14:37:56+03:00*%
%TF.ProjectId,NavKF,4e61764b-462e-46b6-9963-61645f706362,rev?*%
%TF.SameCoordinates,Original*%
%TF.FileFunction,Soldermask,Top*%
%TF.FilePolarity,Negative*%
%FSLAX46Y46*%
G04 Gerber Fmt 4.6, Leading zero omitted, Abs format (unit mm)*
G04 Created by KiCad (PCBNEW 10.0.1-10.0.1~ubuntu24.04.1) date 2026-05-07 14:37:56*
%MOMM*%
%LPD*%
G01*
G04 APERTURE LIST*
G04 Aperture macros list*
%AMRoundRect*
0 Rectangle with rounded corners*
0 $1 Rounding radius*
0 $2 $3 $4 $5 $6 $7 $8 $9 X,Y pos of 4 corners*
0 Add a 4 corners polygon primitive as box body*
4,1,4,$2,$3,$4,$5,$6,$7,$8,$9,$2,$3,0*
0 Add four circle primitives for the rounded corners*
1,1,$1+$1,$2,$3*
1,1,$1+$1,$4,$5*
1,1,$1+$1,$6,$7*
1,1,$1+$1,$8,$9*
0 Add four rect primitives between the rounded corners*
20,1,$1+$1,$2,$3,$4,$5,0*
20,1,$1+$1,$4,$5,$6,$7,0*
20,1,$1+$1,$6,$7,$8,$9,0*
20,1,$1+$1,$8,$9,$2,$3,0*%
G04 Aperture macros list end*
%ADD10RoundRect,0.062500X-0.375000X-0.062500X0.375000X-0.062500X0.375000X0.062500X-0.375000X0.062500X0*%
%ADD11RoundRect,0.062500X-0.062500X-0.375000X0.062500X-0.375000X0.062500X0.375000X-0.062500X0.375000X0*%
%ADD12R,2.500000X2.500000*%
%ADD13RoundRect,0.150000X-0.512500X-0.150000X0.512500X-0.150000X0.512500X0.150000X-0.512500X0.150000X0*%
%ADD14RoundRect,0.200000X-0.200000X-0.275000X0.200000X-0.275000X0.200000X0.275000X-0.200000X0.275000X0*%
%ADD15RoundRect,0.225000X-0.225000X-0.250000X0.225000X-0.250000X0.225000X0.250000X-0.225000X0.250000X0*%
%ADD16RoundRect,0.250000X-0.457500X-0.445000X0.457500X-0.445000X0.457500X0.445000X-0.457500X0.445000X0*%
%ADD17RoundRect,0.140000X-0.140000X-0.170000X0.140000X-0.170000X0.140000X0.170000X-0.140000X0.170000X0*%
%ADD18R,1.250000X1.000000*%
%ADD19RoundRect,0.218750X-0.218750X-0.256250X0.218750X-0.256250X0.218750X0.256250X-0.218750X0.256250X0*%
%ADD20RoundRect,0.135000X-0.135000X-0.185000X0.135000X-0.185000X0.135000X0.185000X-0.135000X0.185000X0*%
%ADD21RoundRect,0.075000X-0.662500X-0.075000X0.662500X-0.075000X0.662500X0.075000X-0.662500X0.075000X0*%
%ADD22RoundRect,0.075000X-0.075000X-0.662500X0.075000X-0.662500X0.075000X0.662500X-0.075000X0.662500X0*%
%ADD23RoundRect,0.050000X-0.150000X-0.300000X0.150000X-0.300000X0.150000X0.300000X-0.150000X0.300000X0*%
%ADD24RoundRect,0.250000X-2.000000X-0.750000X2.000000X-0.750000X2.000000X0.750000X-2.000000X0.750000X0*%
%ADD25RoundRect,0.150000X-0.587500X-0.150000X0.587500X-0.150000X0.587500X0.150000X-0.587500X0.150000X0*%
%ADD26C,0.200000*%
G04 APERTURE END LIST*
D10*
%TO.C,U4*%
X94057500Y-129702500D03*
X94057500Y-130202500D03*
X94057500Y-130702500D03*
X94057500Y-131202500D03*
X94057500Y-131702500D03*
X94057500Y-132202500D03*
D11*
X94745000Y-132890000D03*
X95245000Y-132890000D03*
X95745000Y-132890000D03*
X96245000Y-132890000D03*
X96745000Y-132890000D03*
X97245000Y-132890000D03*
D10*
X97932500Y-132202500D03*
X97932500Y-131702500D03*
X97932500Y-131202500D03*
X97932500Y-130702500D03*
X97932500Y-130202500D03*
X97932500Y-129702500D03*
D11*
X97245000Y-129015000D03*
X96745000Y-129015000D03*
X96245000Y-129015000D03*
X95745000Y-129015000D03*
X95245000Y-129015000D03*
X94745000Y-129015000D03*
D12*
X95995000Y-130952500D03*
%TD*%
D13*
%TO.C,U2*%
X99722500Y-141857500D03*
X99722500Y-142807500D03*
X99722500Y-143757500D03*
X101997500Y-143757500D03*
X101997500Y-142807500D03*
X101997500Y-141857500D03*
%TD*%
D14*
%TO.C,R33*%
X89635000Y-130272500D03*
X91285000Y-130272500D03*
%TD*%
D15*
%TO.C,C42*%
X77655000Y-140312500D03*
X79205000Y-140312500D03*
%TD*%
D16*
%TO.C,C33*%
X99812500Y-135682500D03*
X102517500Y-135682500D03*
%TD*%
D15*
%TO.C,C34*%
X77655000Y-130272500D03*
X79205000Y-130272500D03*
%TD*%
D14*
%TO.C,R18*%
X81615000Y-135292500D03*
X83265000Y-135292500D03*
%TD*%
D17*
%TO.C,C28*%
X61580000Y-148812500D03*
X62540000Y-148812500D03*
%TD*%
D14*
%TO.C,R34*%
X89635000Y-132782500D03*
X91285000Y-132782500D03*
%TD*%
D15*
%TO.C,C41*%
X77655000Y-137802500D03*
X79205000Y-137802500D03*
%TD*%
D14*
%TO.C,R15*%
X81615000Y-127762500D03*
X83265000Y-127762500D03*
%TD*%
D18*
%TO.C,SW1*%
X51475000Y-148462500D03*
X59225000Y-148462500D03*
%TD*%
D14*
%TO.C,R35*%
X89635000Y-135292500D03*
X91285000Y-135292500D03*
%TD*%
%TO.C,R25*%
X85625000Y-132782500D03*
X87275000Y-132782500D03*
%TD*%
%TO.C,R16*%
X81615000Y-130272500D03*
X83265000Y-130272500D03*
%TD*%
D19*
%TO.C,FB1*%
X81652500Y-125252500D03*
X83227500Y-125252500D03*
%TD*%
D15*
%TO.C,C40*%
X77655000Y-135292500D03*
X79205000Y-135292500D03*
%TD*%
%TO.C,C35*%
X77655000Y-132782500D03*
X79205000Y-132782500D03*
%TD*%
%TO.C,C43*%
X81665000Y-122742500D03*
X83215000Y-122742500D03*
%TD*%
D16*
%TO.C,C36*%
X99812500Y-138832500D03*
X102517500Y-138832500D03*
%TD*%
D15*
%TO.C,C31*%
X77655000Y-125252500D03*
X79205000Y-125252500D03*
%TD*%
D14*
%TO.C,R17*%
X81615000Y-132782500D03*
X83265000Y-132782500D03*
%TD*%
D15*
%TO.C,C29*%
X77655000Y-122742500D03*
X79205000Y-122742500D03*
%TD*%
D14*
%TO.C,R26*%
X85625000Y-135292500D03*
X87275000Y-135292500D03*
%TD*%
D20*
%TO.C,R32*%
X61570000Y-146832500D03*
X62590000Y-146832500D03*
%TD*%
D21*
%TO.C,U3*%
X46587500Y-112750000D03*
X46587500Y-113250000D03*
X46587500Y-113750000D03*
X46587500Y-114250000D03*
X46587500Y-114750000D03*
X46587500Y-115250000D03*
X46587500Y-115750000D03*
X46587500Y-116250000D03*
X46587500Y-116750000D03*
X46587500Y-117250000D03*
X46587500Y-117750000D03*
X46587500Y-118250000D03*
X46587500Y-118750000D03*
X46587500Y-119250000D03*
X46587500Y-119750000D03*
X46587500Y-120250000D03*
X46587500Y-120750000D03*
X46587500Y-121250000D03*
X46587500Y-121750000D03*
X46587500Y-122250000D03*
X46587500Y-122750000D03*
X46587500Y-123250000D03*
X46587500Y-123750000D03*
X46587500Y-124250000D03*
X46587500Y-124750000D03*
X46587500Y-125250000D03*
X46587500Y-125750000D03*
X46587500Y-126250000D03*
X46587500Y-126750000D03*
X46587500Y-127250000D03*
X46587500Y-127750000D03*
X46587500Y-128250000D03*
X46587500Y-128750000D03*
X46587500Y-129250000D03*
X46587500Y-129750000D03*
X46587500Y-130250000D03*
D22*
X48500000Y-132162500D03*
X49000000Y-132162500D03*
X49500000Y-132162500D03*
X50000000Y-132162500D03*
X50500000Y-132162500D03*
X51000000Y-132162500D03*
X51500000Y-132162500D03*
X52000000Y-132162500D03*
X52500000Y-132162500D03*
X53000000Y-132162500D03*
X53500000Y-132162500D03*
X54000000Y-132162500D03*
X54500000Y-132162500D03*
X55000000Y-132162500D03*
X55500000Y-132162500D03*
X56000000Y-132162500D03*
X56500000Y-132162500D03*
X57000000Y-132162500D03*
X57500000Y-132162500D03*
X58000000Y-132162500D03*
X58500000Y-132162500D03*
X59000000Y-132162500D03*
X59500000Y-132162500D03*
X60000000Y-132162500D03*
X60500000Y-132162500D03*
X61000000Y-132162500D03*
X61500000Y-132162500D03*
X62000000Y-132162500D03*
X62500000Y-132162500D03*
X63000000Y-132162500D03*
X63500000Y-132162500D03*
X64000000Y-132162500D03*
X64500000Y-132162500D03*
X65000000Y-132162500D03*
X65500000Y-132162500D03*
X66000000Y-132162500D03*
D21*
X67912500Y-130250000D03*
X67912500Y-129750000D03*
X67912500Y-129250000D03*
X67912500Y-128750000D03*
X67912500Y-128250000D03*
X67912500Y-127750000D03*
X67912500Y-127250000D03*
X67912500Y-126750000D03*
X67912500Y-126250000D03*
X67912500Y-125750000D03*
X67912500Y-125250000D03*
X67912500Y-124750000D03*
X67912500Y-124250000D03*
X67912500Y-123750000D03*
X67912500Y-123250000D03*
X67912500Y-122750000D03*
X67912500Y-122250000D03*
X67912500Y-121750000D03*
X67912500Y-121250000D03*
X67912500Y-120750000D03*
X67912500Y-120250000D03*
X67912500Y-119750000D03*
X67912500Y-119250000D03*
X67912500Y-118750000D03*
X67912500Y-118250000D03*
X67912500Y-117750000D03*
X67912500Y-117250000D03*
X67912500Y-116750000D03*
X67912500Y-116250000D03*
X67912500Y-115750000D03*
X67912500Y-115250000D03*
X67912500Y-114750000D03*
X67912500Y-114250000D03*
X67912500Y-113750000D03*
X67912500Y-113250000D03*
X67912500Y-112750000D03*
D22*
X66000000Y-110837500D03*
X65500000Y-110837500D03*
X65000000Y-110837500D03*
X64500000Y-110837500D03*
X64000000Y-110837500D03*
X63500000Y-110837500D03*
X63000000Y-110837500D03*
X62500000Y-110837500D03*
X62000000Y-110837500D03*
X61500000Y-110837500D03*
X61000000Y-110837500D03*
X60500000Y-110837500D03*
X60000000Y-110837500D03*
X59500000Y-110837500D03*
X59000000Y-110837500D03*
X58500000Y-110837500D03*
X58000000Y-110837500D03*
X57500000Y-110837500D03*
X57000000Y-110837500D03*
X56500000Y-110837500D03*
X56000000Y-110837500D03*
X55500000Y-110837500D03*
X55000000Y-110837500D03*
X54500000Y-110837500D03*
X54000000Y-110837500D03*
X53500000Y-110837500D03*
X53000000Y-110837500D03*
X52500000Y-110837500D03*
X52000000Y-110837500D03*
X51500000Y-110837500D03*
X51000000Y-110837500D03*
X50500000Y-110837500D03*
X50000000Y-110837500D03*
X49500000Y-110837500D03*
X49000000Y-110837500D03*
X48500000Y-110837500D03*
%TD*%
D14*
%TO.C,R19*%
X81615000Y-137802500D03*
X83265000Y-137802500D03*
%TD*%
%TO.C,R20*%
X81615000Y-140312500D03*
X83265000Y-140312500D03*
%TD*%
D23*
%TO.C,D1*%
X64555000Y-147007500D03*
X65255000Y-147007500D03*
%TD*%
D14*
%TO.C,R24*%
X85625000Y-130272500D03*
X87275000Y-130272500D03*
%TD*%
%TO.C,R27*%
X85625000Y-137802500D03*
X87275000Y-137802500D03*
%TD*%
D24*
%TO.C,Y3*%
X79495000Y-144942500D03*
X87995000Y-144942500D03*
%TD*%
D25*
%TO.C,Q1*%
X93982500Y-145332500D03*
X93982500Y-147232500D03*
X95857500Y-146282500D03*
%TD*%
D14*
%TO.C,R36*%
X89635000Y-137802500D03*
X91285000Y-137802500D03*
%TD*%
%TO.C,R28*%
X85625000Y-140312500D03*
X87275000Y-140312500D03*
%TD*%
D15*
%TO.C,C32*%
X77655000Y-127762500D03*
X79205000Y-127762500D03*
%TD*%
D26*
X94995000Y-129952500D03*
X94995000Y-130952500D03*
X94995000Y-131952500D03*
X95995000Y-129952500D03*
X95995000Y-130952500D03*
X95995000Y-131952500D03*
X96995000Y-129952500D03*
X96995000Y-130952500D03*
X96995000Y-131952500D03*
M02*
