%TF.GenerationSoftware,KiCad,Pcbnew,10.0.1-10.0.1~ubuntu24.04.1*%
%TF.CreationDate,2026-05-08T17:35:05+03:00*%
%TF.ProjectId,NavKF,4e61764b-462e-46b6-9963-61645f706362,rev?*%
%TF.SameCoordinates,Original*%
%TF.FileFunction,Copper,L1,Top*%
%TF.FilePolarity,Positive*%
%FSLAX46Y46*%
G04 Gerber Fmt 4.6, Leading zero omitted, Abs format (unit mm)*
G04 Created by KiCad (PCBNEW 10.0.1-10.0.1~ubuntu24.04.1) date 2026-05-08 17:35:05*
%MOMM*%
%LPD*%
G01*
G04 APERTURE LIST*
G04 Aperture macros list*
%AMRoundRect*
0 Rectangle with rounded corners*
0 $1 Rounding radius*
0 $2 $3 $4 $5 $6 $7 $8 $9 X,Y pos of 4 corners*
0 Add a 4 corners polygon primitive as box body*
4,1,4,$2,$3,$4,$5,$6,$7,$8,$9,$2,$3,0*
0 Add four circle primitives for the rounded corners*
1,1,$1+$1,$2,$3*
1,1,$1+$1,$4,$5*
1,1,$1+$1,$6,$7*
1,1,$1+$1,$8,$9*
0 Add four rect primitives between the rounded corners*
20,1,$1+$1,$2,$3,$4,$5,0*
20,1,$1+$1,$4,$5,$6,$7,0*
20,1,$1+$1,$6,$7,$8,$9,0*
20,1,$1+$1,$8,$9,$2,$3,0*%
G04 Aperture macros list end*
%TA.AperFunction,SMDPad,CuDef*%
%ADD10RoundRect,0.062500X-0.375000X-0.062500X0.375000X-0.062500X0.375000X0.062500X-0.375000X0.062500X0*%
%TD*%
%TA.AperFunction,SMDPad,CuDef*%
%ADD11RoundRect,0.062500X-0.062500X-0.375000X0.062500X-0.375000X0.062500X0.375000X-0.062500X0.375000X0*%
%TD*%
%TA.AperFunction,HeatsinkPad*%
%ADD12C,0.500000*%
%TD*%
%TA.AperFunction,HeatsinkPad*%
%ADD13R,2.500000X2.500000*%
%TD*%
%TA.AperFunction,SMDPad,CuDef*%
%ADD14RoundRect,0.150000X-0.512500X-0.150000X0.512500X-0.150000X0.512500X0.150000X-0.512500X0.150000X0*%
%TD*%
%TA.AperFunction,SMDPad,CuDef*%
%ADD15RoundRect,0.200000X-0.200000X-0.275000X0.200000X-0.275000X0.200000X0.275000X-0.200000X0.275000X0*%
%TD*%
%TA.AperFunction,SMDPad,CuDef*%
%ADD16RoundRect,0.225000X-0.225000X-0.250000X0.225000X-0.250000X0.225000X0.250000X-0.225000X0.250000X0*%
%TD*%
%TA.AperFunction,SMDPad,CuDef*%
%ADD17RoundRect,0.250000X-0.457500X-0.445000X0.457500X-0.445000X0.457500X0.445000X-0.457500X0.445000X0*%
%TD*%
%TA.AperFunction,SMDPad,CuDef*%
%ADD18RoundRect,0.140000X-0.140000X-0.170000X0.140000X-0.170000X0.140000X0.170000X-0.140000X0.170000X0*%
%TD*%
%TA.AperFunction,SMDPad,CuDef*%
%ADD19R,1.250000X1.000000*%
%TD*%
%TA.AperFunction,SMDPad,CuDef*%
%ADD20RoundRect,0.218750X-0.218750X-0.256250X0.218750X-0.256250X0.218750X0.256250X-0.218750X0.256250X0*%
%TD*%
%TA.AperFunction,SMDPad,CuDef*%
%ADD21RoundRect,0.135000X-0.135000X-0.185000X0.135000X-0.185000X0.135000X0.185000X-0.135000X0.185000X0*%
%TD*%
%TA.AperFunction,SMDPad,CuDef*%
%ADD22RoundRect,0.075000X-0.662500X-0.075000X0.662500X-0.075000X0.662500X0.075000X-0.662500X0.075000X0*%
%TD*%
%TA.AperFunction,SMDPad,CuDef*%
%ADD23RoundRect,0.075000X-0.075000X-0.662500X0.075000X-0.662500X0.075000X0.662500X-0.075000X0.662500X0*%
%TD*%
%TA.AperFunction,SMDPad,CuDef*%
%ADD24RoundRect,0.050000X-0.150000X-0.300000X0.150000X-0.300000X0.150000X0.300000X-0.150000X0.300000X0*%
%TD*%
%TA.AperFunction,SMDPad,CuDef*%
%ADD25RoundRect,0.250000X-2.000000X-0.750000X2.000000X-0.750000X2.000000X0.750000X-2.000000X0.750000X0*%
%TD*%
%TA.AperFunction,SMDPad,CuDef*%
%ADD26RoundRect,0.150000X-0.587500X-0.150000X0.587500X-0.150000X0.587500X0.150000X-0.587500X0.150000X0*%
%TD*%
%ADD27C,0.200000*%
G04 APERTURE END LIST*
D10*
%TO.P,U4,1,VDD2A_1*%
%TO.N,+3V0*%
X94057500Y-129702500D03*
%TO.P,U4,2,LED2/~{INTSEL}_2*%
%TO.N,/Ethernet/Led(Green)A*%
X94057500Y-130202500D03*
%TO.P,U4,3,LED1/REGOFF_3*%
%TO.N,/Ethernet/Led(Yellow)A*%
X94057500Y-130702500D03*
%TO.P,U4,4,XTAL2_4*%
%TO.N,Net-(U4-XTAL2)*%
X94057500Y-131202500D03*
%TO.P,U4,5,XTAL1/CLKIN_5*%
%TO.N,Net-(U4-XTAL1{slash}CLKIN)*%
X94057500Y-131702500D03*
%TO.P,U4,6,VDDCR_6*%
%TO.N,/Ethernet/VDDCR*%
X94057500Y-132202500D03*
D11*
%TO.P,U4,7,RXD1/MODE1_7*%
%TO.N,/Ethernet/rxi-*%
X94745000Y-132890000D03*
%TO.P,U4,8,RXD0/MODE0_8*%
%TO.N,/Ethernet/rxi+*%
X95245000Y-132890000D03*
%TO.P,U4,9,VDDIO_9*%
%TO.N,/Ethernet/3V3_PER*%
X95745000Y-132890000D03*
%TO.P,U4,10,RXER/PHYAD0_10*%
%TO.N,Net-(U4-RXER{slash}PHYAD0)*%
X96245000Y-132890000D03*
%TO.P,U4,11,CRS_DV/MODE2_11*%
%TO.N,Net-(U4-CRS_DV{slash}MODE2)*%
X96745000Y-132890000D03*
%TO.P,U4,12,MDIO_12*%
%TO.N,/Ethernet/RMII_MDIO*%
X97245000Y-132890000D03*
D10*
%TO.P,U4,13,MDC_13*%
%TO.N,/Ethernet/RMII_MDC*%
X97932500Y-132202500D03*
%TO.P,U4,14,~{INT}/REFCLKO_14*%
%TO.N,Net-(U4-~{INT}{slash}REFCLKO)*%
X97932500Y-131702500D03*
%TO.P,U4,15,~{RST}_15*%
%TO.N,/Ethernet/nRST_E*%
X97932500Y-131202500D03*
%TO.P,U4,16,TXEN_16*%
%TO.N,/Ethernet/RMII_TX_EN*%
X97932500Y-130702500D03*
%TO.P,U4,17,TXD0_17*%
%TO.N,/Ethernet/tx+*%
X97932500Y-130202500D03*
%TO.P,U4,18,TXD1_18*%
%TO.N,/Ethernet/tx-*%
X97932500Y-129702500D03*
D11*
%TO.P,U4,19,VDD1A_19*%
%TO.N,+3V0*%
X97245000Y-129015000D03*
%TO.P,U4,20,TXN_20*%
%TO.N,/Ethernet/TD_N*%
X96745000Y-129015000D03*
%TO.P,U4,21,TXP_21*%
%TO.N,/Ethernet/TD_P*%
X96245000Y-129015000D03*
%TO.P,U4,22,RXN_22*%
%TO.N,/Ethernet/RD_N*%
X95745000Y-129015000D03*
%TO.P,U4,23,RXP_23*%
%TO.N,/Ethernet/RD_P*%
X95245000Y-129015000D03*
%TO.P,U4,24,RBIAS_24*%
%TO.N,Net-(U4-RBIAS)*%
X94745000Y-129015000D03*
D12*
%TO.P,U4,25,VSS_25*%
%TO.N,GND*%
X94995000Y-129952500D03*
X94995000Y-130952500D03*
X94995000Y-131952500D03*
X95995000Y-129952500D03*
X95995000Y-130952500D03*
D13*
X95995000Y-130952500D03*
D12*
X95995000Y-131952500D03*
X96995000Y-129952500D03*
X96995000Y-130952500D03*
X96995000Y-131952500D03*
%TD*%
D14*
%TO.P,U2,1,I/O1_1*%
%TO.N,unconnected-(U2-I{slash}O1-Pad1)*%
X99722500Y-141857500D03*
%TO.P,U2,2,GND_2*%
%TO.N,unconnected-(U2-GND-Pad2)*%
X99722500Y-142807500D03*
%TO.P,U2,3,I/O2_3*%
%TO.N,unconnected-(U2-I{slash}O2-Pad3)*%
X99722500Y-143757500D03*
%TO.P,U2,4,I/O3_4*%
%TO.N,unconnected-(U2-I{slash}O3-Pad4)*%
X101997500Y-143757500D03*
%TO.P,U2,5,VBUS_5*%
%TO.N,unconnected-(U2-VBUS-Pad5)*%
X101997500Y-142807500D03*
%TO.P,U2,6,I/O4_6*%
%TO.N,unconnected-(U2-I{slash}O4-Pad6)*%
X101997500Y-141857500D03*
%TD*%
D15*
%TO.P,R33,1*%
%TO.N,Net-(J6-LEDG_K)*%
X89635000Y-130272500D03*
%TO.P,R33,2*%
%TO.N,GND*%
X91285000Y-130272500D03*
%TD*%
D16*
%TO.P,C42,1*%
%TO.N,Net-(J6-RCT)*%
X77655000Y-140312500D03*
%TO.P,C42,2*%
%TO.N,GND*%
X79205000Y-140312500D03*
%TD*%
D17*
%TO.P,C33,1*%
%TO.N,+3V0*%
X99812500Y-135682500D03*
%TO.P,C33,2*%
%TO.N,GND*%
X102517500Y-135682500D03*
%TD*%
D16*
%TO.P,C34,1*%
%TO.N,/Ethernet/3V3_PER*%
X77655000Y-130272500D03*
%TO.P,C34,2*%
%TO.N,GND*%
X79205000Y-130272500D03*
%TD*%
D15*
%TO.P,R18,1*%
%TO.N,/Ethernet/rx-*%
X81615000Y-135292500D03*
%TO.P,R18,2*%
%TO.N,/Ethernet/rxi-*%
X83265000Y-135292500D03*
%TD*%
D18*
%TO.P,C28,1*%
%TO.N,/MCU/NRST*%
X61580000Y-148812500D03*
%TO.P,C28,2*%
%TO.N,GND*%
X62540000Y-148812500D03*
%TD*%
D15*
%TO.P,R34,1*%
%TO.N,+3V0*%
X89635000Y-132782500D03*
%TO.P,R34,2*%
%TO.N,/Ethernet/TD_N*%
X91285000Y-132782500D03*
%TD*%
D16*
%TO.P,C41,1*%
%TO.N,/Ethernet/3V3_PER*%
X77655000Y-137802500D03*
%TO.P,C41,2*%
%TO.N,GND*%
X79205000Y-137802500D03*
%TD*%
D15*
%TO.P,R15,1*%
%TO.N,/Ethernet/RMII_REF_CLK*%
X81615000Y-127762500D03*
%TO.P,R15,2*%
%TO.N,Net-(U4-~{INT}{slash}REFCLKO)*%
X83265000Y-127762500D03*
%TD*%
D19*
%TO.P,SW1,1,A_1*%
%TO.N,/MCU/NRST*%
X51475000Y-148462500D03*
%TO.P,SW1,2,A_2*%
X59225000Y-148462500D03*
%TD*%
D15*
%TO.P,R35,1*%
%TO.N,Net-(J6-LEDY_K)*%
X89635000Y-135292500D03*
%TO.P,R35,2*%
%TO.N,GND*%
X91285000Y-135292500D03*
%TD*%
%TO.P,R25,1*%
%TO.N,Net-(Q1-B)*%
X85625000Y-132782500D03*
%TO.P,R25,2*%
%TO.N,/Ethernet/ETH_nRST*%
X87275000Y-132782500D03*
%TD*%
%TO.P,R16,1*%
%TO.N,/Ethernet/3V3_PER*%
X81615000Y-130272500D03*
%TO.P,R16,2*%
%TO.N,/Ethernet/RMII_MDIO*%
X83265000Y-130272500D03*
%TD*%
D20*
%TO.P,FB1,1*%
%TO.N,/Ethernet/3V3_PER*%
X81652500Y-125252500D03*
%TO.P,FB1,2*%
%TO.N,+3V0*%
X83227500Y-125252500D03*
%TD*%
D16*
%TO.P,C40,1*%
%TO.N,/Ethernet/3V3_PER*%
X77655000Y-135292500D03*
%TO.P,C40,2*%
%TO.N,GND*%
X79205000Y-135292500D03*
%TD*%
%TO.P,C35,1*%
%TO.N,/Ethernet/3V3_PER*%
X77655000Y-132782500D03*
%TO.P,C35,2*%
%TO.N,GND*%
X79205000Y-132782500D03*
%TD*%
%TO.P,C43,1*%
%TO.N,Net-(J6-RCT)*%
X81665000Y-122742500D03*
%TO.P,C43,2*%
%TO.N,GND*%
X83215000Y-122742500D03*
%TD*%
D17*
%TO.P,C36,1*%
%TO.N,/Ethernet/3V3_PER*%
X99812500Y-138832500D03*
%TO.P,C36,2*%
%TO.N,GND*%
X102517500Y-138832500D03*
%TD*%
D16*
%TO.P,C31,1*%
%TO.N,/Ethernet/VDDCR*%
X77655000Y-125252500D03*
%TO.P,C31,2*%
%TO.N,GND*%
X79205000Y-125252500D03*
%TD*%
D15*
%TO.P,R17,1*%
%TO.N,/Ethernet/rx+*%
X81615000Y-132782500D03*
%TO.P,R17,2*%
%TO.N,/Ethernet/rxi+*%
X83265000Y-132782500D03*
%TD*%
D16*
%TO.P,C29,1*%
%TO.N,/Ethernet/VDDCR*%
X77655000Y-122742500D03*
%TO.P,C29,2*%
%TO.N,GND*%
X79205000Y-122742500D03*
%TD*%
D15*
%TO.P,R26,1*%
%TO.N,GND*%
X85625000Y-135292500D03*
%TO.P,R26,2*%
%TO.N,Net-(Q1-B)*%
X87275000Y-135292500D03*
%TD*%
D21*
%TO.P,R32,1*%
%TO.N,V_{DD}*%
X61570000Y-146832500D03*
%TO.P,R32,2*%
%TO.N,unconnected-(R32-Pad2)*%
X62590000Y-146832500D03*
%TD*%
D22*
%TO.P,U3,1,PE2_1*%
%TO.N,unconnected-(U3-PE2-Pad1)*%
X47087500Y-116500000D03*
%TO.P,U3,2,PE3_2*%
%TO.N,unconnected-(U3-PE3-Pad2)*%
X47087500Y-117000000D03*
%TO.P,U3,3,PE4_3*%
%TO.N,unconnected-(U3-PE4-Pad3)*%
X47087500Y-117500000D03*
%TO.P,U3,4,PE5_4*%
%TO.N,unconnected-(U3-PE5-Pad4)*%
X47087500Y-118000000D03*
%TO.P,U3,5,PE6_5*%
%TO.N,unconnected-(U3-PE6-Pad5)*%
X47087500Y-118500000D03*
%TO.P,U3,6,VBAT_6*%
%TO.N,unconnected-(U3-VBAT-Pad6)*%
X47087500Y-119000000D03*
%TO.P,U3,7,PC13_7*%
%TO.N,unconnected-(U3-PC13-Pad7)*%
X47087500Y-119500000D03*
%TO.P,U3,8,PC14_8*%
%TO.N,unconnected-(U3-PC14-Pad8)*%
X47087500Y-120000000D03*
%TO.P,U3,9,PC15_9*%
%TO.N,unconnected-(U3-PC15-Pad9)*%
X47087500Y-120500000D03*
%TO.P,U3,10,PF0_10*%
%TO.N,unconnected-(U3-PF0-Pad10)*%
X47087500Y-121000000D03*
%TO.P,U3,11,PF1_11*%
%TO.N,unconnected-(U3-PF1-Pad11)*%
X47087500Y-121500000D03*
%TO.P,U3,12,PF2_12*%
%TO.N,unconnected-(U3-PF2-Pad12)*%
X47087500Y-122000000D03*
%TO.P,U3,13,PF3_13*%
%TO.N,unconnected-(U3-PF3-Pad13)*%
X47087500Y-122500000D03*
%TO.P,U3,14,PF4_14*%
%TO.N,unconnected-(U3-PF4-Pad14)*%
X47087500Y-123000000D03*
%TO.P,U3,15,PF5_15*%
%TO.N,unconnected-(U3-PF5-Pad15)*%
X47087500Y-123500000D03*
%TO.P,U3,16,VSS_16*%
%TO.N,Net-(U3-VSS-Pad107)*%
X47087500Y-124000000D03*
%TO.P,U3,17,VDD_17*%
%TO.N,unconnected-(U3-VDD-Pad17)*%
X47087500Y-124500000D03*
%TO.P,U3,18,PF6_18*%
%TO.N,unconnected-(U3-PF6-Pad18)*%
X47087500Y-125000000D03*
%TO.P,U3,19,PF7_19*%
%TO.N,unconnected-(U3-PF7-Pad19)*%
X47087500Y-125500000D03*
%TO.P,U3,20,PF8_20*%
%TO.N,unconnected-(U3-PF8-Pad20)*%
X47087500Y-126000000D03*
%TO.P,U3,21,PF9_21*%
%TO.N,unconnected-(U3-PF9-Pad21)*%
X47087500Y-126500000D03*
%TO.P,U3,22,PF10_22*%
%TO.N,unconnected-(U3-PF10-Pad22)*%
X47087500Y-127000000D03*
%TO.P,U3,23,PH0_23*%
%TO.N,unconnected-(U3-PH0-Pad23)*%
X47087500Y-127500000D03*
%TO.P,U3,24,PH1_24*%
%TO.N,unconnected-(U3-PH1-Pad24)*%
X47087500Y-128000000D03*
%TO.P,U3,25,NRST_25*%
%TO.N,unconnected-(U3-NRST-Pad25)*%
X47087500Y-128500000D03*
%TO.P,U3,26,PC0_26*%
%TO.N,unconnected-(U3-PC0-Pad26)*%
X47087500Y-129000000D03*
%TO.P,U3,27,PC1_27*%
%TO.N,unconnected-(U3-PC1-Pad27)*%
X47087500Y-129500000D03*
%TO.P,U3,28,PC2_C_28*%
%TO.N,unconnected-(U3-PC2_C-Pad28)*%
X47087500Y-130000000D03*
%TO.P,U3,29,PC3_C_29*%
%TO.N,unconnected-(U3-PC3_C-Pad29)*%
X47087500Y-130500000D03*
%TO.P,U3,30,VDD_30*%
%TO.N,unconnected-(U3-VDD-Pad30)*%
X47087500Y-131000000D03*
%TO.P,U3,31,VSSA_31*%
%TO.N,unconnected-(U3-VSSA-Pad31)*%
X47087500Y-131500000D03*
%TO.P,U3,32,VREF+_32*%
%TO.N,unconnected-(U3-VREF+-Pad32)*%
X47087500Y-132000000D03*
%TO.P,U3,33,VDDA_33*%
%TO.N,unconnected-(U3-VDDA-Pad33)*%
X47087500Y-132500000D03*
%TO.P,U3,34,PA0_34*%
%TO.N,unconnected-(U3-PA0-Pad34)*%
X47087500Y-133000000D03*
%TO.P,U3,35,PA1_35*%
%TO.N,unconnected-(U3-PA1-Pad35)*%
X47087500Y-133500000D03*
%TO.P,U3,36,PA2_36*%
%TO.N,unconnected-(U3-PA2-Pad36)*%
X47087500Y-134000000D03*
D23*
%TO.P,U3,37,PA3_37*%
%TO.N,unconnected-(U3-PA3-Pad37)*%
X49000000Y-135912500D03*
%TO.P,U3,38,VSS_38*%
%TO.N,Net-(U3-VSS-Pad107)*%
X49500000Y-135912500D03*
%TO.P,U3,39,VDD_39*%
%TO.N,unconnected-(U3-VDD-Pad39)*%
X50000000Y-135912500D03*
%TO.P,U3,40,PA4_40*%
%TO.N,unconnected-(U3-PA4-Pad40)*%
X50500000Y-135912500D03*
%TO.P,U3,41,PA5_41*%
%TO.N,unconnected-(U3-PA5-Pad41)*%
X51000000Y-135912500D03*
%TO.P,U3,42,PA6_42*%
%TO.N,unconnected-(U3-PA6-Pad42)*%
X51500000Y-135912500D03*
%TO.P,U3,43,PA7_43*%
%TO.N,unconnected-(U3-PA7-Pad43)*%
X52000000Y-135912500D03*
%TO.P,U3,44,PC4_44*%
%TO.N,unconnected-(U3-PC4-Pad44)*%
X52500000Y-135912500D03*
%TO.P,U3,45,PC5_45*%
%TO.N,unconnected-(U3-PC5-Pad45)*%
X53000000Y-135912500D03*
%TO.P,U3,46,PB0_46*%
%TO.N,unconnected-(U3-PB0-Pad46)*%
X53500000Y-135912500D03*
%TO.P,U3,47,PB1_47*%
%TO.N,unconnected-(U3-PB1-Pad47)*%
X54000000Y-135912500D03*
%TO.P,U3,48,PB2_48*%
%TO.N,unconnected-(U3-PB2-Pad48)*%
X54500000Y-135912500D03*
%TO.P,U3,49,PF11_49*%
%TO.N,unconnected-(U3-PF11-Pad49)*%
X55000000Y-135912500D03*
%TO.P,U3,50,PF12_50*%
%TO.N,unconnected-(U3-PF12-Pad50)*%
X55500000Y-135912500D03*
%TO.P,U3,51,VSS_51*%
%TO.N,Net-(U3-VSS-Pad107)*%
X56000000Y-135912500D03*
%TO.P,U3,52,VDD_52*%
%TO.N,unconnected-(U3-VDD-Pad52)*%
X56500000Y-135912500D03*
%TO.P,U3,53,PF13_53*%
%TO.N,unconnected-(U3-PF13-Pad53)*%
X57000000Y-135912500D03*
%TO.P,U3,54,PF14_54*%
%TO.N,unconnected-(U3-PF14-Pad54)*%
X57500000Y-135912500D03*
%TO.P,U3,55,PF15_55*%
%TO.N,unconnected-(U3-PF15-Pad55)*%
X58000000Y-135912500D03*
%TO.P,U3,56,PG0_56*%
%TO.N,unconnected-(U3-PG0-Pad56)*%
X58500000Y-135912500D03*
%TO.P,U3,57,PG1_57*%
%TO.N,unconnected-(U3-PG1-Pad57)*%
X59000000Y-135912500D03*
%TO.P,U3,58,PE7_58*%
%TO.N,unconnected-(U3-PE7-Pad58)*%
X59500000Y-135912500D03*
%TO.P,U3,59,PE8_59*%
%TO.N,unconnected-(U3-PE8-Pad59)*%
X60000000Y-135912500D03*
%TO.P,U3,60,PE9_60*%
%TO.N,unconnected-(U3-PE9-Pad60)*%
X60500000Y-135912500D03*
%TO.P,U3,61,VSS_61*%
%TO.N,Net-(U3-VSS-Pad107)*%
X61000000Y-135912500D03*
%TO.P,U3,62,VDD_62*%
%TO.N,unconnected-(U3-VDD-Pad62)*%
X61500000Y-135912500D03*
%TO.P,U3,63,PE10_63*%
%TO.N,unconnected-(U3-PE10-Pad63)*%
X62000000Y-135912500D03*
%TO.P,U3,64,PE11_64*%
%TO.N,unconnected-(U3-PE11-Pad64)*%
X62500000Y-135912500D03*
%TO.P,U3,65,PE12_65*%
%TO.N,unconnected-(U3-PE12-Pad65)*%
X63000000Y-135912500D03*
%TO.P,U3,66,PE13_66*%
%TO.N,unconnected-(U3-PE13-Pad66)*%
X63500000Y-135912500D03*
%TO.P,U3,67,PE14_67*%
%TO.N,unconnected-(U3-PE14-Pad67)*%
X64000000Y-135912500D03*
%TO.P,U3,68,PE15_68*%
%TO.N,unconnected-(U3-PE15-Pad68)*%
X64500000Y-135912500D03*
%TO.P,U3,69,PB10_69*%
%TO.N,unconnected-(U3-PB10-Pad69)*%
X65000000Y-135912500D03*
%TO.P,U3,70,PB11_70*%
%TO.N,unconnected-(U3-PB11-Pad70)*%
X65500000Y-135912500D03*
%TO.P,U3,71,VCAP_71*%
%TO.N,unconnected-(U3-VCAP-Pad71)*%
X66000000Y-135912500D03*
%TO.P,U3,72,VDD_72*%
%TO.N,unconnected-(U3-VDD-Pad72)*%
X66500000Y-135912500D03*
D22*
%TO.P,U3,73,PB12_73*%
%TO.N,unconnected-(U3-PB12-Pad73)*%
X68412500Y-134000000D03*
%TO.P,U3,74,PB13_74*%
%TO.N,unconnected-(U3-PB13-Pad74)*%
X68412500Y-133500000D03*
%TO.P,U3,75,PB14_75*%
%TO.N,unconnected-(U3-PB14-Pad75)*%
X68412500Y-133000000D03*
%TO.P,U3,76,PB15_76*%
%TO.N,unconnected-(U3-PB15-Pad76)*%
X68412500Y-132500000D03*
%TO.P,U3,77,PD8_77*%
%TO.N,unconnected-(U3-PD8-Pad77)*%
X68412500Y-132000000D03*
%TO.P,U3,78,PD9_78*%
%TO.N,unconnected-(U3-PD9-Pad78)*%
X68412500Y-131500000D03*
%TO.P,U3,79,PD10_79*%
%TO.N,unconnected-(U3-PD10-Pad79)*%
X68412500Y-131000000D03*
%TO.P,U3,80,PD11_80*%
%TO.N,unconnected-(U3-PD11-Pad80)*%
X68412500Y-130500000D03*
%TO.P,U3,81,PD12_81*%
%TO.N,unconnected-(U3-PD12-Pad81)*%
X68412500Y-130000000D03*
%TO.P,U3,82,PD13_82*%
%TO.N,unconnected-(U3-PD13-Pad82)*%
X68412500Y-129500000D03*
%TO.P,U3,83,VSS_83*%
%TO.N,Net-(U3-VSS-Pad107)*%
X68412500Y-129000000D03*
%TO.P,U3,84,VDD_84*%
%TO.N,unconnected-(U3-VDD-Pad84)*%
X68412500Y-128500000D03*
%TO.P,U3,85,PD14_85*%
%TO.N,unconnected-(U3-PD14-Pad85)*%
X68412500Y-128000000D03*
%TO.P,U3,86,PD15_86*%
%TO.N,unconnected-(U3-PD15-Pad86)*%
X68412500Y-127500000D03*
%TO.P,U3,87,PG2_87*%
%TO.N,unconnected-(U3-PG2-Pad87)*%
X68412500Y-127000000D03*
%TO.P,U3,88,PG3_88*%
%TO.N,unconnected-(U3-PG3-Pad88)*%
X68412500Y-126500000D03*
%TO.P,U3,89,PG4_89*%
%TO.N,unconnected-(U3-PG4-Pad89)*%
X68412500Y-126000000D03*
%TO.P,U3,90,PG5_90*%
%TO.N,unconnected-(U3-PG5-Pad90)*%
X68412500Y-125500000D03*
%TO.P,U3,91,PG6_91*%
%TO.N,unconnected-(U3-PG6-Pad91)*%
X68412500Y-125000000D03*
%TO.P,U3,92,PG7_92*%
%TO.N,unconnected-(U3-PG7-Pad92)*%
X68412500Y-124500000D03*
%TO.P,U3,93,PG8_93*%
%TO.N,unconnected-(U3-PG8-Pad93)*%
X68412500Y-124000000D03*
%TO.P,U3,94,VSS_94*%
%TO.N,Net-(U3-VSS-Pad107)*%
X68412500Y-123500000D03*
%TO.P,U3,95,VDD33USB_95*%
%TO.N,unconnected-(U3-VDD33USB-Pad95)*%
X68412500Y-123000000D03*
%TO.P,U3,96,PC6_96*%
%TO.N,unconnected-(U3-PC6-Pad96)*%
X68412500Y-122500000D03*
%TO.P,U3,97,PC7_97*%
%TO.N,unconnected-(U3-PC7-Pad97)*%
X68412500Y-122000000D03*
%TO.P,U3,98,PC8_98*%
%TO.N,unconnected-(U3-PC8-Pad98)*%
X68412500Y-121500000D03*
%TO.P,U3,99,PC9_99*%
%TO.N,unconnected-(U3-PC9-Pad99)*%
X68412500Y-121000000D03*
%TO.P,U3,100,PA8_100*%
%TO.N,unconnected-(U3-PA8-Pad100)*%
X68412500Y-120500000D03*
%TO.P,U3,101,PA9_101*%
%TO.N,unconnected-(U3-PA9-Pad101)*%
X68412500Y-120000000D03*
%TO.P,U3,102,PA10_102*%
%TO.N,unconnected-(U3-PA10-Pad102)*%
X68412500Y-119500000D03*
%TO.P,U3,103,PA11_103*%
%TO.N,unconnected-(U3-PA11-Pad103)*%
X68412500Y-119000000D03*
%TO.P,U3,104,PA12_104*%
%TO.N,unconnected-(U3-PA12-Pad104)*%
X68412500Y-118500000D03*
%TO.P,U3,105,PA13(JTMS_105*%
%TO.N,unconnected-(U3-PA13(JTMS-Pad105)*%
X68412500Y-118000000D03*
%TO.P,U3,106,VCAP_106*%
%TO.N,unconnected-(U3-VCAP-Pad106)*%
X68412500Y-117500000D03*
%TO.P,U3,107,VSS_107*%
%TO.N,Net-(U3-VSS-Pad107)*%
X68412500Y-117000000D03*
%TO.P,U3,108,VDD_108*%
%TO.N,unconnected-(U3-VDD-Pad108)*%
X68412500Y-116500000D03*
D23*
%TO.P,U3,109,PA14(JTCK_109*%
%TO.N,unconnected-(U3-PA14(JTCK-Pad109)*%
X66500000Y-114587500D03*
%TO.P,U3,110,PA15(JTDI)_110*%
%TO.N,unconnected-(U3-PA15(JTDI)-Pad110)*%
X66000000Y-114587500D03*
%TO.P,U3,111,PC10_111*%
%TO.N,unconnected-(U3-PC10-Pad111)*%
X65500000Y-114587500D03*
%TO.P,U3,112,PC11_112*%
%TO.N,unconnected-(U3-PC11-Pad112)*%
X65000000Y-114587500D03*
%TO.P,U3,113,PC12_113*%
%TO.N,unconnected-(U3-PC12-Pad113)*%
X64500000Y-114587500D03*
%TO.P,U3,114,PD0_114*%
%TO.N,unconnected-(U3-PD0-Pad114)*%
X64000000Y-114587500D03*
%TO.P,U3,115,PD1_115*%
%TO.N,unconnected-(U3-PD1-Pad115)*%
X63500000Y-114587500D03*
%TO.P,U3,116,PD2_116*%
%TO.N,unconnected-(U3-PD2-Pad116)*%
X63000000Y-114587500D03*
%TO.P,U3,117,PD3_117*%
%TO.N,unconnected-(U3-PD3-Pad117)*%
X62500000Y-114587500D03*
%TO.P,U3,118,PD4_118*%
%TO.N,unconnected-(U3-PD4-Pad118)*%
X62000000Y-114587500D03*
%TO.P,U3,119,PD5_119*%
%TO.N,unconnected-(U3-PD5-Pad119)*%
X61500000Y-114587500D03*
%TO.P,U3,120,VSS_120*%
%TO.N,Net-(U3-VSS-Pad107)*%
X61000000Y-114587500D03*
%TO.P,U3,121,VDD_121*%
%TO.N,unconnected-(U3-VDD-Pad121)*%
X60500000Y-114587500D03*
%TO.P,U3,122,PD6_122*%
%TO.N,unconnected-(U3-PD6-Pad122)*%
X60000000Y-114587500D03*
%TO.P,U3,123,PD7_123*%
%TO.N,unconnected-(U3-PD7-Pad123)*%
X59500000Y-114587500D03*
%TO.P,U3,124,PG9_124*%
%TO.N,unconnected-(U3-PG9-Pad124)*%
X59000000Y-114587500D03*
%TO.P,U3,125,PG10_125*%
%TO.N,unconnected-(U3-PG10-Pad125)*%
X58500000Y-114587500D03*
%TO.P,U3,126,PG11_126*%
%TO.N,unconnected-(U3-PG11-Pad126)*%
X58000000Y-114587500D03*
%TO.P,U3,127,PG12_127*%
%TO.N,unconnected-(U3-PG12-Pad127)*%
X57500000Y-114587500D03*
%TO.P,U3,128,PG13_128*%
%TO.N,unconnected-(U3-PG13-Pad128)*%
X57000000Y-114587500D03*
%TO.P,U3,129,PG14_129*%
%TO.N,unconnected-(U3-PG14-Pad129)*%
X56500000Y-114587500D03*
%TO.P,U3,130,VSS_130*%
%TO.N,Net-(U3-VSS-Pad107)*%
X56000000Y-114587500D03*
%TO.P,U3,131,VDD_131*%
%TO.N,unconnected-(U3-VDD-Pad131)*%
X55500000Y-114587500D03*
%TO.P,U3,132,PG15_132*%
%TO.N,unconnected-(U3-PG15-Pad132)*%
X55000000Y-114587500D03*
%TO.P,U3,133,PB3(JTDO_133*%
%TO.N,unconnected-(U3-PB3(JTDO-Pad133)*%
X54500000Y-114587500D03*
%TO.P,U3,134,PB4(NJTRST)_134*%
%TO.N,unconnected-(U3-PB4(NJTRST)-Pad134)*%
X54000000Y-114587500D03*
%TO.P,U3,135,PB5_135*%
%TO.N,unconnected-(U3-PB5-Pad135)*%
X53500000Y-114587500D03*
%TO.P,U3,136,PB6_136*%
%TO.N,unconnected-(U3-PB6-Pad136)*%
X53000000Y-114587500D03*
%TO.P,U3,137,PB7_137*%
%TO.N,unconnected-(U3-PB7-Pad137)*%
X52500000Y-114587500D03*
%TO.P,U3,138,BOOT0_138*%
%TO.N,unconnected-(U3-BOOT0-Pad138)*%
X52000000Y-114587500D03*
%TO.P,U3,139,PB8_139*%
%TO.N,unconnected-(U3-PB8-Pad139)*%
X51500000Y-114587500D03*
%TO.P,U3,140,PB9_140*%
%TO.N,unconnected-(U3-PB9-Pad140)*%
X51000000Y-114587500D03*
%TO.P,U3,141,PE0_141*%
%TO.N,unconnected-(U3-PE0-Pad141)*%
X50500000Y-114587500D03*
%TO.P,U3,142,PE1_142*%
%TO.N,unconnected-(U3-PE1-Pad142)*%
X50000000Y-114587500D03*
%TO.P,U3,143,PDR_ON_143*%
%TO.N,unconnected-(U3-PDR_ON-Pad143)*%
X49500000Y-114587500D03*
%TO.P,U3,144,VDD_144*%
%TO.N,unconnected-(U3-VDD-Pad144)*%
X49000000Y-114587500D03*
%TD*%
D15*
%TO.P,R19,1*%
%TO.N,/Ethernet/rxi-*%
X81615000Y-137802500D03*
%TO.P,R19,2*%
%TO.N,/Ethernet/3V3_PER*%
X83265000Y-137802500D03*
%TD*%
%TO.P,R20,1*%
%TO.N,Net-(U4-~{INT}{slash}REFCLKO)*%
X81615000Y-140312500D03*
%TO.P,R20,2*%
%TO.N,/Ethernet/3V3_PER*%
X83265000Y-140312500D03*
%TD*%
D24*
%TO.P,D1,1,K_1*%
%TO.N,/MCU/NRST*%
X64555000Y-147007500D03*
%TO.P,D1,2,A_2*%
%TO.N,GND*%
X65255000Y-147007500D03*
%TD*%
D15*
%TO.P,R24,1*%
%TO.N,GND*%
X85625000Y-130272500D03*
%TO.P,R24,2*%
%TO.N,Net-(U4-RXER{slash}PHYAD0)*%
X87275000Y-130272500D03*
%TD*%
%TO.P,R27,1*%
%TO.N,/Ethernet/nRST_E*%
X85625000Y-137802500D03*
%TO.P,R27,2*%
%TO.N,/Ethernet/3V3_PER*%
X87275000Y-137802500D03*
%TD*%
D25*
%TO.P,Y3,1,1_1*%
%TO.N,Net-(U4-XTAL2)*%
X79495000Y-144942500D03*
%TO.P,Y3,2,2_2*%
%TO.N,Net-(U4-XTAL1{slash}CLKIN)*%
X87995000Y-144942500D03*
%TD*%
D26*
%TO.P,Q1,1,B_1*%
%TO.N,Net-(Q1-B)*%
X93982500Y-145332500D03*
%TO.P,Q1,2,E_2*%
%TO.N,GND*%
X93982500Y-147232500D03*
%TO.P,Q1,3,C_3*%
%TO.N,/Ethernet/nRST_E*%
X95857500Y-146282500D03*
%TD*%
D15*
%TO.P,R36,1*%
%TO.N,+3V0*%
X89635000Y-137802500D03*
%TO.P,R36,2*%
%TO.N,/Ethernet/TD_P*%
X91285000Y-137802500D03*
%TD*%
%TO.P,R28,1*%
%TO.N,Net-(U4-RBIAS)*%
X85625000Y-140312500D03*
%TO.P,R28,2*%
%TO.N,GND*%
X87275000Y-140312500D03*
%TD*%
D16*
%TO.P,C32,1*%
%TO.N,+3V0*%
X77655000Y-127762500D03*
%TO.P,C32,2*%
%TO.N,GND*%
X79205000Y-127762500D03*
%TD*%
D27*
X94995000Y-129952500D03*
X94995000Y-130952500D03*
X94995000Y-131952500D03*
X95995000Y-129952500D03*
X95995000Y-130952500D03*
X95995000Y-131952500D03*
X96995000Y-129952500D03*
X96995000Y-130952500D03*
X96995000Y-131952500D03*
M02*
